<svg xmlns="http://www.w3.org/2000/svg" width="1600" height="960" viewBox="0 0 1600 960" role="img" aria-labelledby="title desc">
  <title id="title">FormMint procedural accessory forge</title>
  <desc id="desc">A sleek dark creator workbench with procedural controls, a large interactive crown preview, and a live geometry readiness panel.</desc>

  <defs>
    <linearGradient id="backdrop" x1="0" y1="0" x2="1" y2="1">
      <stop stop-color="#0b0e14"/>
      <stop offset=".55" stop-color="#10151e"/>
      <stop offset="1" stop-color="#080a0f"/>
    </linearGradient>
    <linearGradient id="frame" x1="0" y1="0" x2="1" y2="1">
      <stop stop-color="#121821"/>
      <stop offset="1" stop-color="#0c1017"/>
    </linearGradient>
    <linearGradient id="panel" x1="0" y1="0" x2="0" y2="1">
      <stop stop-color="#151b25"/>
      <stop offset="1" stop-color="#10151d"/>
    </linearGradient>
    <linearGradient id="crown" x1="0" y1="0" x2="1" y2="1">
      <stop stop-color="#e8ff92"/>
      <stop offset=".42" stop-color="#c5ed58"/>
      <stop offset=".72" stop-color="#82dca1"/>
      <stop offset="1" stop-color="#8d7cff"/>
    </linearGradient>
    <linearGradient id="ring" x1="0" y1="0" x2="1" y2="0">
      <stop stop-color="#c7f15b"/>
      <stop offset=".48" stop-color="#6be8c7"/>
      <stop offset="1" stop-color="#8e7dff"/>
    </linearGradient>
    <radialGradient id="viewportGlow">
      <stop stop-color="#7b68f4" stop-opacity=".26"/>
      <stop offset=".48" stop-color="#67d8bd" stop-opacity=".09"/>
      <stop offset="1" stop-color="#090c12" stop-opacity="0"/>
    </radialGradient>
    <radialGradient id="pageGlow">
      <stop stop-color="#7a68f1" stop-opacity=".2"/>
      <stop offset="1" stop-color="#0b0e14" stop-opacity="0"/>
    </radialGradient>
    <filter id="frameShadow" x="-15%" y="-15%" width="130%" height="140%">
      <feDropShadow dx="0" dy="34" stdDeviation="38" flood-color="#000" flood-opacity=".48"/>
    </filter>
    <filter id="objectShadow" x="-40%" y="-40%" width="180%" height="180%">
      <feDropShadow dx="0" dy="24" stdDeviation="22" flood-color="#68dec1" flood-opacity=".16"/>
    </filter>
    <filter id="softBlur"><feGaussianBlur stdDeviation="28"/></filter>
    <clipPath id="appClip"><rect x="54" y="48" width="1492" height="864" rx="28"/></clipPath>
  </defs>

  <rect width="1600" height="960" fill="url(#backdrop)"/>
  <circle cx="230" cy="70" r="330" fill="url(#pageGlow)"/>
  <circle cx="1430" cy="870" r="360" fill="url(#pageGlow)" opacity=".55"/>
  <path d="M0 795C275 726 482 858 746 811c279-50 497-158 854-62v211H0Z" fill="#111723" opacity=".52"/>

  <rect x="54" y="48" width="1492" height="864" rx="28" fill="url(#frame)" stroke="#2b3442" stroke-width="1.5" filter="url(#frameShadow)"/>

  <g clip-path="url(#appClip)" font-family="Inter, ui-sans-serif, system-ui, -apple-system, BlinkMacSystemFont, 'Segoe UI', sans-serif">
    <!-- Application header -->
    <rect x="54" y="48" width="1492" height="86" fill="#111721"/>
    <line x1="54" y1="134" x2="1546" y2="134" stroke="#293241"/>

    <rect x="82" y="69" width="44" height="44" rx="13" fill="#0b0f15" stroke="#303a48"/>
    <path d="m94 82 10-6 10 6v12l-10 6-10-6Z" fill="none" stroke="#c9f15b" stroke-width="2"/>
    <path d="m94 82 10 6 10-6M104 88v12" fill="none" stroke="#6ce4c5" stroke-width="2"/>
    <text x="140" y="87" fill="#f6f8fb" font-size="18" font-weight="760" letter-spacing="-.4">FormMint</text>
    <text x="140" y="105" fill="#798596" font-size="10" font-weight="620">LOCAL ACCESSORY WORKBENCH</text>

    <rect x="579" y="67" width="441" height="48" rx="15" fill="#0c1118" stroke="#2a3442"/>
    <rect x="586" y="74" width="136" height="34" rx="10" fill="#202838"/>
    <circle cx="607" cy="91" r="5" fill="#c8ef5b"/>
    <text x="621" y="95" fill="#f7f9fb" font-size="12" font-weight="720">Forge</text>
    <circle cx="755" cy="91" r="5" fill="#566172"/>
    <text x="769" y="95" fill="#a2adbb" font-size="12" font-weight="650">Concept</text>
    <circle cx="895" cy="91" r="5" fill="#566172"/>
    <text x="909" y="95" fill="#a2adbb" font-size="12" font-weight="650">Launch</text>

    <circle cx="1300" cy="91" r="4" fill="#68e2c2"/>
    <text x="1312" y="95" fill="#95a2b2" font-size="10" font-weight="650">SAVED LOCALLY</text>
    <rect x="1413" y="70" width="104" height="42" rx="12" fill="#c9f15b"/>
    <path d="M1432 81h12l3 3v16h-15Zm3 0v7h8v-7m-8 19v-8h9v8" fill="none" stroke="#11161d" stroke-width="1.5"/>
    <text x="1455" y="96" fill="#11161d" font-size="11" font-weight="800">Save</text>

    <!-- Left control rail -->
    <rect x="54" y="134" width="314" height="778" fill="url(#panel)"/>
    <line x1="368" y1="134" x2="368" y2="912" stroke="#293241"/>

    <text x="82" y="172" fill="#8290a2" font-size="9" font-weight="760" letter-spacing="1.7">PROCEDURAL MESH</text>
    <text x="82" y="202" fill="#f5f7fa" font-size="24" font-weight="760" letter-spacing="-.7">Shape controls</text>
    <rect x="324" y="169" width="20" height="20" rx="6" fill="#202938"/>
    <path d="M329 175h10m-10 4h10m-10 4h10" stroke="#8b97a7" stroke-width="1.4"/>

    <text x="82" y="236" fill="#7f8a99" font-size="9" font-weight="720">PROJECT NAME</text>
    <rect x="82" y="247" width="258" height="42" rx="11" fill="#0c1118" stroke="#323c4b"/>
    <text x="97" y="273" fill="#dbe0e7" font-size="12" font-weight="580">Citrus Signal Crown</text>

    <text x="82" y="321" fill="#7f8a99" font-size="9" font-weight="720">QUICK PRESET</text>
    <rect x="82" y="332" width="258" height="42" rx="11" fill="#111823" stroke="#323c4b"/>
    <text x="97" y="358" fill="#dbe0e7" font-size="11" font-weight="620">Orbit Crown · Clean</text>
    <path d="m318 348 5 5 5-5" fill="none" stroke="#778597" stroke-width="1.5"/>

    <text x="82" y="409" fill="#7f8a99" font-size="9" font-weight="720">SILHOUETTE</text>
    <rect x="82" y="420" width="124" height="76" rx="12" fill="#1b2330" stroke="#87a93f"/>
    <path d="M101 453h24l-4-15-7 11-6-14-7 18Z" fill="none" stroke="#c9f15b" stroke-width="1.8"/>
    <text x="136" y="448" fill="#f1f4f7" font-size="10" font-weight="720">Crown</text>
    <text x="136" y="464" fill="#8592a3" font-size="8">Ring + spires</text>
    <rect x="216" y="420" width="124" height="76" rx="12" fill="#0d1219" stroke="#2c3644"/>
    <ellipse cx="239" cy="452" rx="13" ry="6" fill="none" stroke="#8e7dff" stroke-width="1.8"/>
    <text x="264" y="448" fill="#ced4dc" font-size="10" font-weight="700">Halo</text>
    <text x="264" y="464" fill="#758192" font-size="8">Signal fins</text>

    <line x1="82" y1="523" x2="340" y2="523" stroke="#293241"/>
    <text x="82" y="554" fill="#f0f3f7" font-size="12" font-weight="720">Proportions</text>
    <text x="310" y="554" fill="#667385" font-size="8" font-weight="720">STUDS</text>

    <text x="82" y="586" fill="#9ba6b4" font-size="10">Radius</text>
    <rect x="292" y="569" width="48" height="24" rx="7" fill="#202937"/>
    <text x="304" y="586" fill="#d8dde4" font-size="9" font-weight="700">0.70</text>
    <rect x="82" y="605" width="258" height="4" rx="2" fill="#293241"/>
    <rect x="82" y="605" width="126" height="4" rx="2" fill="#c9f15b"/>
    <circle cx="208" cy="607" r="6" fill="#111721" stroke="#d8f780" stroke-width="2"/>

    <text x="82" y="643" fill="#9ba6b4" font-size="10">Thickness</text>
    <rect x="292" y="626" width="48" height="24" rx="7" fill="#202937"/>
    <text x="301" y="643" fill="#d8dde4" font-size="9" font-weight="700">0.085</text>
    <rect x="82" y="662" width="258" height="4" rx="2" fill="#293241"/>
    <rect x="82" y="662" width="82" height="4" rx="2" fill="#7f70f0"/>
    <circle cx="164" cy="664" r="6" fill="#111721" stroke="#9c8fff" stroke-width="2"/>

    <text x="82" y="700" fill="#9ba6b4" font-size="10">Spire height</text>
    <rect x="292" y="683" width="48" height="24" rx="7" fill="#202937"/>
    <text x="303" y="700" fill="#d8dde4" font-size="9" font-weight="700">0.46</text>
    <rect x="82" y="719" width="258" height="4" rx="2" fill="#293241"/>
    <rect x="82" y="719" width="106" height="4" rx="2" fill="#69dfc0"/>
    <circle cx="188" cy="721" r="6" fill="#111721" stroke="#83ebd0" stroke-width="2"/>

    <line x1="82" y1="755" x2="340" y2="755" stroke="#293241"/>
    <text x="82" y="786" fill="#f0f3f7" font-size="12" font-weight="720">Preview material</text>
    <text x="82" y="819" fill="#9ba6b4" font-size="10">Base color</text>
    <circle cx="319" cy="815" r="13" fill="#c9f15b" stroke="#efffb4" stroke-width="2"/>
    <text x="82" y="855" fill="#9ba6b4" font-size="10">Roughness</text>
    <rect x="176" y="844" width="164" height="4" rx="2" fill="#293241"/>
    <rect x="176" y="844" width="64" height="4" rx="2" fill="#78879a"/>
    <circle cx="240" cy="846" r="5" fill="#111721" stroke="#b6c0cb" stroke-width="1.5"/>

    <!-- Center viewport -->
    <rect x="368" y="134" width="762" height="778" fill="#090d13"/>
    <rect x="388" y="154" width="722" height="52" rx="13" fill="#121923" stroke="#273241"/>
    <circle cx="410" cy="180" r="5" fill="#68e3c2"/>
    <text x="424" y="184" fill="#e8edf2" font-size="11" font-weight="720">Geometry gate passed</text>
    <rect x="873" y="167" width="26" height="16" rx="8" fill="#c8f05a"/>
    <circle cx="891" cy="175" r="5" fill="#10151c"/>
    <text x="910" y="179" fill="#8f9bab" font-size="9" font-weight="600">Show Hat boundary</text>

    <circle cx="752" cy="515" r="330" fill="url(#viewportGlow)"/>
    <ellipse cx="752" cy="779" rx="236" ry="42" fill="#000" opacity=".48" filter="url(#softBlur)"/>

    <g opacity=".5">
      <path d="M407 253H1090M407 343H1090M407 433H1090M407 523H1090M407 613H1090M407 703H1090M407 793H1090" stroke="#1a2430"/>
      <path d="M476 225V821M566 225V821M656 225V821M746 225V821M836 225V821M926 225V821M1016 225V821" stroke="#18222e"/>
    </g>

    <rect x="411" y="228" width="158" height="32" rx="9" fill="#121923" stroke="#273241"/>
    <path d="m428 238 7-4 7 4v8l-7 4-7-4Z" fill="none" stroke="#7f8c9e" stroke-width="1.2"/>
    <text x="451" y="248" fill="#aeb8c5" font-size="9" font-weight="670">ONE MERGED MESH</text>

    <path d="M553 679C604 635 677 617 752 617s148 18 199 62v116H553Z" fill="#1c2430" stroke="#2b3543"/>
    <ellipse cx="752" cy="567" rx="116" ry="132" fill="#242d39" stroke="#313d4c"/>
    <ellipse cx="752" cy="565" rx="93" ry="107" fill="#202833"/>

    <g filter="url(#objectShadow)">
      <path d="M602 493 634 337l53 131 64-182 63 182 54-131 33 156-43 47H645Z" fill="url(#crown)" stroke="#eaff9b" stroke-width="2.5" stroke-linejoin="round"/>
      <ellipse cx="752" cy="497" rx="151" ry="52" fill="url(#ring)" stroke="#f2ffbd" stroke-width="2"/>
      <ellipse cx="752" cy="494" rx="126" ry="35" fill="#111720" stroke="#8d7cff" stroke-width="6"/>
      <ellipse cx="752" cy="489" rx="112" ry="25" fill="#0a0e14"/>
      <circle cx="634" cy="337" r="7" fill="#f5ffc6"/>
      <circle cx="751" cy="286" r="8" fill="#f5ffc6"/>
      <circle cx="868" cy="337" r="7" fill="#f5ffc6"/>
    </g>

    <rect x="564" y="274" width="376" height="353" rx="18" fill="none" stroke="#6ce4c5" stroke-opacity=".5" stroke-dasharray="7 7"/>
    <path d="M564 294v-20h20M920 274h20v20M564 607v20h20M920 627h20v-20" fill="none" stroke="#8ff0d7" stroke-width="2" opacity=".7"/>

    <rect x="612" y="842" width="281" height="36" rx="18" fill="#111822" stroke="#26313f"/>
    <circle cx="635" cy="860" r="3" fill="#687588"/>
    <text x="647" y="864" fill="#8390a1" font-size="9" font-weight="620">DRAG TO ORBIT</text>
    <circle cx="741" cy="860" r="3" fill="#687588"/>
    <text x="753" y="864" fill="#8390a1" font-size="9" font-weight="620">SCROLL TO ZOOM</text>

    <!-- Right readiness rail -->
    <rect x="1130" y="134" width="416" height="778" fill="url(#panel)"/>
    <line x1="1130" y1="134" x2="1130" y2="912" stroke="#293241"/>

    <text x="1158" y="172" fill="#8290a2" font-size="9" font-weight="760" letter-spacing="1.7">LIVE GEOMETRY GATE</text>
    <text x="1158" y="202" fill="#f5f7fa" font-size="24" font-weight="760" letter-spacing="-.7">Ready to refine</text>
    <circle cx="1494" cy="184" r="24" fill="#13241f" stroke="#64dfbf" stroke-width="2"/>
    <text x="1481" y="189" fill="#78e7c8" font-size="11" font-weight="820">6/6</text>

    <rect x="1158" y="231" width="171" height="76" rx="14" fill="#0d131b" stroke="#2b3543"/>
    <text x="1174" y="253" fill="#718093" font-size="8" font-weight="720" letter-spacing="1.1">TRIANGLES</text>
    <text x="1174" y="285" fill="#f1f4f7" font-size="22" font-weight="760">2,184</text>
    <rect x="1337" y="231" width="181" height="76" rx="14" fill="#0d131b" stroke="#2b3543"/>
    <text x="1353" y="253" fill="#718093" font-size="8" font-weight="720" letter-spacing="1.1">EXPORT OBJECT</text>
    <text x="1353" y="285" fill="#f1f4f7" font-size="22" font-weight="760">1 mesh</text>

    <text x="1158" y="341" fill="#7f8a99" font-size="9" font-weight="720">FIT TARGET</text>
    <rect x="1158" y="352" width="360" height="44" rx="11" fill="#0d131b" stroke="#303a48"/>
    <text x="1173" y="379" fill="#dbe1e8" font-size="11" font-weight="650">Normal Hat · 1.87 × 2.5 × 1.87</text>
    <path d="m1496 369 5 5 5-5" fill="none" stroke="#768395" stroke-width="1.5"/>

    <g>
      <circle cx="1170" cy="434" r="11" fill="#173129"/>
      <path d="m1165 434 3 3 7-8" fill="none" stroke="#72e5c5" stroke-width="1.8"/>
      <text x="1190" y="431" fill="#e5e9ee" font-size="11" font-weight="700">Single mesh object</text>
      <text x="1190" y="448" fill="#738092" font-size="9">Merged correctly for export.</text>
      <line x1="1158" y1="469" x2="1518" y2="469" stroke="#283240"/>

      <circle cx="1170" cy="496" r="11" fill="#173129"/>
      <path d="m1165 496 3 3 7-8" fill="none" stroke="#72e5c5" stroke-width="1.8"/>
      <text x="1190" y="493" fill="#e5e9ee" font-size="11" font-weight="700">Triangle budget passed</text>
      <text x="1190" y="510" fill="#738092" font-size="9">Comfortably below the current limit.</text>
      <line x1="1158" y1="531" x2="1518" y2="531" stroke="#283240"/>

      <circle cx="1170" cy="558" r="11" fill="#173129"/>
      <path d="m1165 558 3 3 7-8" fill="none" stroke="#72e5c5" stroke-width="1.8"/>
      <text x="1190" y="555" fill="#e5e9ee" font-size="11" font-weight="700">Hat bounds passed</text>
      <text x="1190" y="572" fill="#738092" font-size="9">Dimensions fit the selected target.</text>
    </g>

    <rect x="1158" y="609" width="360" height="88" rx="14" fill="#171c28" stroke="#343d4d"/>
    <rect x="1174" y="625" width="32" height="32" rx="10" fill="#24263a"/>
    <path d="M1190 633l-8 3v6c0 5 3 8 8 10 5-2 8-5 8-10v-6Z" fill="none" stroke="#9e90ff" stroke-width="1.5"/>
    <text x="1220" y="640" fill="#ebeef2" font-size="10" font-weight="720">Studio validation still required</text>
    <text x="1220" y="658" fill="#7e8a9b" font-size="8.5">Finish in Blender, then test with the AFT.</text>
    <text x="1174" y="680" fill="#a5afbb" font-size="8.5">FormMint creates a production-ready starting point.</text>

    <rect x="1158" y="725" width="360" height="48" rx="13" fill="#c9f15b"/>
    <path d="M1289 738v14m0 0 5-5m-5 5-5-5m-3 11h16" fill="none" stroke="#10151c" stroke-width="1.7"/>
    <text x="1310" y="754" fill="#10151c" font-size="12" font-weight="820">Export .GLB</text>

    <rect x="1158" y="785" width="113" height="43" rx="11" fill="#111822" stroke="#303a48"/>
    <text x="1200" y="811" fill="#d7dde4" font-size="10" font-weight="720">.OBJ</text>
    <rect x="1281" y="785" width="113" height="43" rx="11" fill="#111822" stroke="#303a48"/>
    <text x="1324" y="811" fill="#d7dde4" font-size="10" font-weight="720">.PNG</text>
    <rect x="1404" y="785" width="114" height="43" rx="11" fill="#111822" stroke="#303a48"/>
    <text x="1431" y="811" fill="#d7dde4" font-size="10" font-weight="720">PROJECT</text>

    <circle cx="1170" cy="865" r="4" fill="#67e1c1"/>
    <text x="1183" y="869" fill="#7c899a" font-size="9" font-weight="630">PRIVATE BY DEFAULT · NO API KEY · NO TELEMETRY</text>
  </g>
</svg>
